# Blender v2.82 (sub 7) OBJ File: 'source.blend'
# www.blender.org
mtllib matlib1
o kc
v 1.000000 -3.000000 -1.000000
v 1.000000 -1.000000 -3.000000
v 3.000000 -1.000000 -1.000000
v 3.000000 1.000000 1.000000
v 3.000000 1.000000 -1.000000
v 1.000000 1.000000 -3.000000
v -1.000000 -1.000000 -3.000000
v -1.000000 1.000000 -3.000000
v -3.000000 1.000000 1.000000
v -3.000000 -1.000000 -1.000000
v -3.000000 -1.000000 1.000000
v 1.000000 -3.000000 1.000000
v -1.000000 -3.000000 -1.000000
v -1.000000 -1.000000 3.000000
v 1.000000 -1.000000 3.000000
v 3.000000 -1.000000 1.000000
v -1.000000 1.000000 3.000000
v -1.000000 -3.000000 1.000000
v 1.000000 1.000000 3.000000
v 1.000000 3.000000 -1.000000
v -0.000111 3.991170 -0.000278
v -1.000000 3.000000 -1.000000
v -3.000000 1.000000 -1.000000
v -1.000000 3.000000 1.000000
v 1.000000 3.000000 1.000000
v 0.699940 -0.699940 3.000000
v 0.699940 0.699940 3.000000
v -0.699940 0.699940 3.000000
v -0.699940 -0.699940 3.000000
v 0.000644 0.001448 2.000734
v -0.699812 3.000000 -0.699812
v -0.699812 3.000000 0.699812
v 0.699812 3.000000 -0.699812
v 0.699812 3.000000 0.699812
vt 0.543585 0.202788
vt 0.376328 0.106222
vt 0.543585 0.009657
vt 0.825457 0.868725
vt 0.962021 0.732160
vt 0.962021 0.868725
vt 0.374793 0.993172
vt 0.511358 0.856607
vt 0.511358 0.993172
vt 0.825457 0.431718
vt 0.962021 0.568282
vt 0.825457 0.568282
vt 0.825457 0.581939
vt 0.962021 0.718503
vt 0.825457 0.718503
vt 0.006828 0.646991
vt 0.143393 0.840122
vt 0.006828 0.840122
vt 0.511358 0.646991
vt 0.374793 0.840122
vt 0.374793 0.646991
vt 0.811800 0.646991
vt 0.675236 0.840122
vt 0.675236 0.646991
vt 0.374793 0.434546
vt 0.511358 0.627678
vt 0.374793 0.627678
vt 0.661579 0.627678
vt 0.525015 0.434546
vt 0.661579 0.434546
vt 0.008363 0.106222
vt 0.175620 0.009657
vt 0.175620 0.202788
vt 0.157049 0.646991
vt 0.293614 0.840122
vt 0.157049 0.840122
vt 0.359602 0.222101
vt 0.359602 0.415233
vt 0.192345 0.318667
vt 0.558776 0.222101
vt 0.695341 0.415233
vt 0.558776 0.415233
vt 0.845562 0.415233
vt 0.708997 0.222101
vt 0.845562 0.222101
vt 0.008363 0.531112
vt 0.175620 0.434546
vt 0.175620 0.627678
vt 0.359602 0.009657
vt 0.359602 0.202788
vt 0.192345 0.106222
vt 0.811800 0.434546
vt 0.675236 0.627678
vt 0.675236 0.434546
vt 0.845562 0.009657
vt 0.708997 0.202788
vt 0.708997 0.009657
vt 0.661579 0.840122
vt 0.525015 0.646991
vt 0.661579 0.646991
vt 0.695341 0.009657
vt 0.558776 0.202788
vt 0.558776 0.009657
vt 0.008363 0.318667
vt 0.175620 0.222101
vt 0.175620 0.415233
vt 0.543585 0.415233
vt 0.376328 0.318667
vt 0.543585 0.222101
vt 0.192345 0.531112
vt 0.359602 0.434546
vt 0.359602 0.627678
vt 0.177538 0.877096
vt 0.293614 0.856607
vt 0.273125 0.877096
vt 0.273125 0.972683
vt 0.157049 0.993172
vt 0.177538 0.972683
vt 0.293614 0.993172
vt 0.157049 0.856607
vt 0.939452 0.322920
vt 0.939452 0.418891
vt 0.856536 0.371332
vt 0.027326 0.972674
vt 0.006828 0.856607
vt 0.027326 0.877105
vt 0.122895 0.972674
vt 0.006828 0.993172
vt 0.122895 0.877105
vt 0.143393 0.993172
vt 0.143393 0.856607
vt 0.825457 0.732160
vt 0.374793 0.856607
vt 0.962021 0.431718
vt 0.962021 0.581939
vt 0.143393 0.646991
vt 0.511358 0.840122
vt 0.811800 0.840122
vt 0.511358 0.434546
vt 0.525015 0.627678
vt 0.293614 0.646991
vt 0.695341 0.222101
vt 0.708997 0.415233
vt 0.811800 0.627678
vt 0.845562 0.202788
vt 0.525015 0.840122
vt 0.695341 0.202788
vt 0.939395 0.217248
vt 0.939395 0.313318
vt 0.856533 0.265666
vt 0.939498 0.110525
vt 0.939498 0.206540
vt 0.856538 0.159058
vt 0.939441 0.004806
vt 0.939441 0.100919
vt 0.856535 0.053343
vt 0.787249 0.950208
vt 0.704472 0.902326
vt 0.787249 0.854561
vt 0.905548 0.880335
vt 0.905548 0.975970
vt 0.822767 0.928211
vt 0.696193 0.950196
vt 0.613398 0.902293
vt 0.696193 0.854561
vt 0.605118 0.854561
vt 0.605118 0.950208
vt 0.522326 0.902470
vn 0.5774 -0.5774 -0.5774
vn 1.0000 -0.0000 0.0000
vn 0.0000 0.0000 -1.0000
vn -1.0000 0.0000 0.0000
vn 0.0000 -1.0000 0.0000
vn -0.7071 -0.7071 0.0000
vn 0.0000 -0.7071 0.7071
vn 0.7071 -0.7071 0.0000
vn 0.0000 -0.7071 -0.7071
vn -0.7071 0.0000 -0.7071
vn -0.5774 -0.5774 -0.5774
vn -0.7071 0.0000 0.7071
vn -0.5774 -0.5774 0.5774
vn 0.7071 0.0000 -0.7071
vn 0.7071 -0.0000 0.7071
vn 0.5774 -0.5774 0.5774
vn 0.5774 0.5774 -0.5774
vn -0.7071 0.7071 0.0000
vn 0.0000 0.7071 0.7071
vn 0.7071 0.7071 0.0000
vn 0.0000 0.7071 -0.7071
vn -0.5774 0.5774 -0.5774
vn -0.5774 0.5774 0.5774
vn 0.5774 0.5774 0.5774
vn -0.0000 0.0000 1.0000
vn 0.0000 -0.8196 0.5729
vn 0.0000 1.0000 0.0000
vn -0.8193 0.0000 0.5734
vn 0.8188 0.0000 0.5741
vn 0.0000 0.8185 0.5745
vn -0.8169 0.5767 0.0000
vn 0.0000 0.5766 -0.8170
vn 0.8169 0.5768 0.0000
vn 0.0000 0.5769 0.8168
g g1
usemtl mat1
s off
f 1/1/1 2/2/1 3/3/1
f 4/4/2 3/5/2 5/6/2
f 6/7/3 7/8/3 8/9/3
f 9/10/4 10/11/4 11/12/4
f 12/13/5 13/14/5 1/15/5
f 13/16/6 11/17/6 10/18/6
f 14/19/7 12/20/7 15/21/7
f 16/22/8 1/23/8 3/24/8
f 1/25/9 7/26/9 2/27/9
f 10/28/10 8/29/10 7/30/10
f 10/31/11 7/32/11 13/33/11
f 9/34/12 14/35/12 17/36/12
f 11/37/13 18/38/13 14/39/13
f 2/40/14 5/41/14 3/42/14
f 19/43/15 16/44/15 4/45/15
f 15/46/16 12/47/16 16/48/16
f 20/49/17 5/50/17 6/51/17
f 9/52/18 22/53/18 23/54/18
f 19/55/19 24/56/19 17/57/19
f 20/58/20 4/59/20 5/60/20
f 8/61/21 20/62/21 6/63/21
f 23/64/22 22/65/22 8/66/22
f 9/67/23 17/68/23 24/69/23
f 19/70/24 4/71/24 25/72/24
f 26/73/25 19/74/25 27/75/25
f 28/76/25 14/77/25 29/78/25
f 27/75/25 17/79/25 28/76/25
f 29/78/25 15/80/25 26/73/25
f 30/81/26 27/82/26 28/83/26
f 31/84/27 24/85/27 32/86/27
f 33/87/27 22/88/27 31/84/27
f 34/89/27 20/90/27 33/87/27
f 32/86/27 25/91/27 34/89/27
f 4/4/2 16/92/2 3/5/2
f 6/7/3 2/93/3 7/8/3
f 9/10/4 23/94/4 10/11/4
f 12/13/5 18/95/5 13/14/5
f 13/16/6 18/96/6 11/17/6
f 14/19/7 18/97/7 12/20/7
f 16/22/8 12/98/8 1/23/8
f 1/25/9 13/99/9 7/26/9
f 10/28/10 23/100/10 8/29/10
f 9/34/12 11/101/12 14/35/12
f 2/40/14 6/102/14 5/41/14
f 19/43/15 15/103/15 16/44/15
f 9/52/18 24/104/18 22/53/18
f 19/55/19 25/105/19 24/56/19
f 20/58/20 25/106/20 4/59/20
f 8/61/21 22/107/21 20/62/21
f 26/73/25 15/80/25 19/74/25
f 28/76/25 17/79/25 14/77/25
f 27/75/25 19/74/25 17/79/25
f 29/78/25 14/77/25 15/80/25
f 30/108/28 26/109/28 27/110/28
f 30/111/29 28/112/29 29/113/29
f 30/114/30 29/115/30 26/116/30
f 31/84/27 22/88/27 24/85/27
f 33/87/27 20/90/27 22/88/27
f 34/89/27 25/91/27 20/90/27
f 32/86/27 24/85/27 25/91/27
f 21/117/31 31/118/31 32/119/31
f 21/120/32 33/121/32 31/122/32
f 21/123/33 34/124/33 33/125/33
f 21/126/34 32/127/34 34/128/34
